# Wavefront OBJ file
# Exported by Misfit Model 3D 1.3.8
# Tue Aug 14 17:35:35 2012

mtllib house8.mtl

# 50 Vertices
v -200.0 -0.000004 -300.0
v -200.0 300.0 -300.0
v 200.0 -0.000005 -300.0
v 200.0 300.0 -300.0
v -200.0 -0.000004 300.0
v -200.0 300.0 300.0
v 200.0 -0.000005 300.0
v 200.0 300.0 300.0
v -0.0 419.950043 350.0
v -0.0 419.950043 -350.0
v 250.0 273.540222 350.0
v 250.0 273.540222 -350.0
v -250.0 273.540222 350.0
v -250.0 273.540222 -350.0
v -0.0 424.950043 350.0
v -0.0 424.950043 -350.0
v 250.0 278.540222 350.0
v 250.0 278.540222 -350.0
v -250.0 278.540222 350.0
v -250.0 278.540222 -350.0
v 0.0 415.0 -300.0
v -200.0 300.0 300.0
v 200.0 300.0 300.0
v 0.0 415.0 300.0
v -6.068639 352.048065 -216.374603
v -6.068638 352.048065 -265.572113
v -6.068639 462.091675 -216.374588
v -6.068638 462.091675 -265.572113
v -61.223846 352.048065 -265.572113
v -61.223846 352.048065 -216.374603
v -61.223846 462.091675 -265.572113
v -61.223846 462.091675 -216.374603
v 200.0 300.0 -300.0
v -200.0 -0.000004 -300.0
v -200.0 -0.000004 300.0
v 200.0 300.0 300.0
v 200.0 300.0 300.0
v 200.0 -0.000005 300.0
v 200.0 -0.000005 -300.0
v 200.0 -0.000005 -300.0
v 200.0 300.0 -300.0
v 200.0 300.0 300.0
v -200.0 -0.000004 -300.0
v -200.0 -0.000004 300.0
v -200.0 300.0 300.0
v -200.0 300.0 300.0
v -200.0 300.0 -300.0
v -200.0 -0.000004 -300.0
v 200.0 300.0 -300.0
v -200.0 300.0 -300.0

# 120 Texture Coordinates
vt 0.216151 0.037525
vt 0.215558 0.119191
vt 0.042291 0.118558
vt 0.042291 0.118558
vt 0.042884 0.036892
vt 0.216151 0.037525
vt 0.679019 0.118558
vt 0.505752 0.119191
vt 0.505159 0.037525
vt 0.505159 0.037525
vt 0.678426 0.036892
vt 0.679019 0.118558
vt 0.679019 0.118558
vt 0.678426 0.036892
vt 0.968633 0.036892
vt 0.968633 0.036892
vt 0.96804 0.118558
vt 0.679019 0.118558
vt 0.216151 0.037525
vt 0.505159 0.037525
vt 0.505752 0.119191
vt 0.505752 0.119191
vt 0.215558 0.119191
vt 0.216151 0.037525
vt 0.081601 0.560564
vt 0.518399 0.560564
vt 0.573509 0.240449
vt 0.573509 0.240449
vt 0.026491 0.240449
vt 0.081601 0.560564
vt 0.026491 0.240449
vt 0.573509 0.240449
vt 0.518399 0.560564
vt 0.518399 0.560564
vt 0.081601 0.560564
vt 0.026491 0.240449
vt 0.573509 0.251413
vt 0.518399 0.57338
vt 0.081601 0.57338
vt 0.081601 0.57338
vt 0.026491 0.251413
vt 0.573509 0.251413
vt 0.518399 0.57338
vt 0.573509 0.251413
vt 0.026491 0.251413
vt 0.026491 0.251413
vt 0.081601 0.57338
vt 0.518399 0.57338
vt 0.026491 0.251413
vt 0.026491 0.240449
vt 0.081601 0.560564
vt 0.081601 0.560564
vt 0.081601 0.57338
vt 0.026491 0.251413
vt 0.081601 0.57338
vt 0.081601 0.560564
vt 0.026491 0.240449
vt 0.026491 0.240449
vt 0.026491 0.251413
vt 0.081601 0.57338
vt 0.518399 0.560564
vt 0.573509 0.240449
vt 0.573509 0.251413
vt 0.573509 0.251413
vt 0.518399 0.57338
vt 0.518399 0.560564
vt 0.573509 0.240449
vt 0.518399 0.560564
vt 0.518399 0.57338
vt 0.518399 0.57338
vt 0.573509 0.251413
vt 0.573509 0.240449
vt 0.026491 0.251413
vt 0.026491 0.240449
vt 0.573509 0.240449
vt 0.573509 0.240449
vt 0.573509 0.251413
vt 0.026491 0.251413
vt 0.573509 0.240449
vt 0.026491 0.240449
vt 0.026491 0.251413
vt 0.026491 0.251413
vt 0.573509 0.251413
vt 0.573509 0.240449
vt 0.128525 0.150171
vt 0.04235 0.118549
vt 0.215617 0.119182
vt 0.505752 0.119191
vt 0.679019 0.118558
vt 0.592844 0.15018
vt 0.678297 0.645927
vt 0.597367 0.645927
vt 0.676517 0.453427
vt 0.597367 0.645927
vt 0.599122 0.453427
vt 0.676517 0.453427
vt 0.837051 0.644364
vt 0.763211 0.644364
vt 0.838664 0.451865
vt 0.763211 0.644364
vt 0.761555 0.451865
vt 0.838664 0.451865
vt 0.676517 0.453427
vt 0.763211 0.644364
vt 0.678297 0.645927
vt 0.676517 0.453427
vt 0.761555 0.451865
vt 0.763211 0.644364
vt 0.838664 0.451865
vt 0.931334 0.645927
vt 0.837051 0.644364
vt 0.838664 0.451865
vt 0.933089 0.453427
vt 0.931334 0.645927
vt 0.850649 0.669874
vt 0.776217 0.744305
vt 0.776217 0.669874
vt 0.850649 0.669874
vt 0.850649 0.744305
vt 0.776217 0.744305

# 120 Vertex Normals
vn 0.0 0.0 -1.0
vn 0.0 0.0 -1.0
vn 0.0 0.0 -1.0
vn 0.0 0.0 -1.0
vn 0.0 0.0 -1.0
vn 0.0 0.0 -1.0
vn 0.0 0.0 1.0
vn 0.0 0.0 1.0
vn 0.0 0.0 1.0
vn 0.0 0.0 1.0
vn 0.0 0.0 1.0
vn 0.0 0.0 1.0
vn 1.0 0.0 -0.0
vn 1.0 0.0 -0.0
vn 1.0 0.0 -0.0
vn 1.0 0.0 0.0
vn 1.0 0.0 0.0
vn 1.0 0.0 0.0
vn -1.0 0.0 0.0
vn -1.0 0.0 0.0
vn -1.0 0.0 0.0
vn -1.0 0.0 0.0
vn -1.0 0.0 0.0
vn -1.0 0.0 0.0
vn -0.191597 -0.981474 0.0
vn 0.191597 -0.981474 0.0
vn -0.505355 -0.862912 0.0
vn -0.505355 -0.862912 0.0
vn -0.505355 -0.862912 0.0
vn -0.191597 -0.981474 0.0
vn 0.505355 -0.862912 0.0
vn 0.505355 -0.862912 0.0
vn 0.191597 -0.981474 0.0
vn 0.191597 -0.981474 0.0
vn -0.191597 -0.981474 0.0
vn 0.505355 -0.862912 0.0
vn 0.758817 0.651304 0.0
vn -0.191597 0.981474 0.0
vn 0.191597 0.981474 0.0
vn 0.191597 0.981474 0.0
vn 0.94549 0.325652 0.0
vn 0.758817 0.651304 0.0
vn -0.191597 0.981474 0.0
vn -0.86757 0.497315 0.0
vn -0.86757 0.497315 0.0
vn -0.86757 0.497315 0.0
vn 0.191597 0.981474 0.0
vn -0.191597 0.981474 0.0
vn 0.0 0.0 1.0
vn 0.0 0.0 1.0
vn 0.0 -0.0 1.0
vn 0.0 -0.0 1.0
vn 0.0 -0.0 1.0
vn 0.0 0.0 1.0
vn 0.0 -0.0 1.0
vn 0.0 -0.0 1.0
vn 0.0 0.0 1.0
vn 0.0 0.0 1.0
vn 0.0 0.0 1.0
vn 0.0 -0.0 1.0
vn 0.0 -0.0 -1.0
vn 0.0 0.0 -1.0
vn 0.0 0.0 -1.0
vn 0.0 0.0 -1.0
vn 0.0 -0.0 -1.0
vn 0.0 -0.0 -1.0
vn 0.0 0.0 -1.0
vn 0.0 -0.0 -1.0
vn 0.0 -0.0 -1.0
vn 0.0 -0.0 -1.0
vn 0.0 0.0 -1.0
vn 0.0 0.0 -1.0
vn 0.94549 0.325652 0.0
vn 1.0 0.0 0.0
vn 1.0 0.0 0.0
vn 1.0 0.0 0.0
vn 0.758817 0.651304 0.0
vn 0.94549 0.325652 0.0
vn -1.0 0.0 0.0
vn -1.0 0.0 0.0
vn -0.86757 0.497315 0.0
vn -0.86757 0.497315 0.0
vn -0.86757 0.497315 0.0
vn -1.0 0.0 0.0
vn 0.0 -0.0 -1.0
vn 0.0 -0.0 -1.0
vn 0.0 -0.0 -1.0
vn 0.0 -0.0 1.0
vn 0.0 -0.0 1.0
vn 0.0 -0.0 1.0
vn 1.0 -0.0 0.0
vn 1.0 -0.0 0.0
vn 1.0 -0.0 0.0
vn 1.0 -0.0 0.0
vn 1.0 0.0 0.0
vn 1.0 -0.0 0.0
vn -1.0 0.0 0.0
vn -1.0 0.0 0.0
vn -1.0 0.0 0.0
vn -1.0 0.0 0.0
vn -1.0 0.0 0.0
vn -1.0 0.0 0.0
vn -0.0 -0.0 1.0
vn -0.0 -0.0 1.0
vn 0.0 -0.0 1.0
vn -0.0 -0.0 1.0
vn -0.0 0.0 1.0
vn -0.0 -0.0 1.0
vn 0.0 0.0 -1.0
vn 0.0 0.0 -1.0
vn 0.0 0.0 -1.0
vn 0.0 0.0 -1.0
vn 0.0 0.0 -1.0
vn 0.0 0.0 -1.0
vn 0.0 1.0 0.0
vn 0.0 1.0 0.0
vn 0.0 1.0 0.0
vn 0.0 1.0 0.0
vn 0.0 1.0 0.0
vn 0.0 1.0 0.0

# Group, 40 grouped triangles

usemtl Skin
o Group
g Group

f 1/1/1 2/2/2 4/3/3
f 33/4/4 3/5/5 34/6/6
f 8/7/7 6/8/8 5/9/9
f 35/10/10 7/11/11 36/12/12
f 37/13/13 38/14/14 39/15/15
f 40/16/16 41/17/17 42/18/18
f 43/19/19 44/20/20 45/21/21
f 46/22/22 47/23/23 48/24/24
f 9/25/25 10/26/26 12/27/27
f 12/28/28 11/29/29 9/30/30
f 13/31/31 14/32/32 10/33/33
f 10/34/34 9/35/35 13/36/36
f 18/37/37 16/38/38 15/39/39
f 15/40/40 17/41/41 18/42/42
f 16/43/43 20/44/44 19/45/45
f 19/46/46 15/47/47 16/48/48
f 19/49/49 13/50/50 9/51/51
f 9/52/52 15/53/53 19/54/54
f 15/55/55 9/56/56 11/57/57
f 11/58/58 17/59/59 15/60/60
f 10/61/61 14/62/62 20/63/63
f 20/64/64 16/65/65 10/66/66
f 12/67/67 10/68/68 16/69/69
f 16/70/70 18/71/71 12/72/72
f 17/73/73 11/74/74 12/75/75
f 12/76/76 18/77/77 17/78/78
f 14/79/79 13/80/80 19/81/81
f 19/82/82 20/83/83 14/84/84
f 21/85/85 49/86/86 50/87/87
f 22/88/88 23/89/89 24/90/90
f 25/91/91 26/92/92 27/93/93
f 26/94/94 28/95/95 27/96/96
f 29/97/97 30/98/98 31/99/99
f 30/100/100 32/101/101 31/102/102
f 27/103/103 30/104/104 25/105/105
f 27/106/106 32/107/107 30/108/108
f 31/109/109 26/110/110 29/111/111
f 31/112/112 28/113/113 26/114/114
f 27/115/115 31/116/116 32/117/117
f 27/118/118 28/119/119 31/120/120
